<mxfile host="app.diagrams.net" agent="Mozilla/5.0 (Windows NT 10.0; Win64; x64) AppleWebKit/537.36 (KHTML, like Gecko) Chrome/134.0.0.0 Safari/537.36" version="26.1.0">
  <diagram name="Page-1" id="0EnoeR63hosD8oPKJyMT">
    <mxGraphModel dx="1313" dy="761" grid="1" gridSize="10" guides="1" tooltips="1" connect="1" arrows="1" fold="1" page="1" pageScale="1" pageWidth="850" pageHeight="1100" math="0" shadow="0">
      <root>
        <mxCell id="0" />
        <mxCell id="1" parent="0" />
        <mxCell id="9IuPYIYa4n8VkR3qBBK9-1" value="" style="rounded=0;whiteSpace=wrap;html=1;" vertex="1" parent="1">
          <mxGeometry x="300" y="60" width="390" height="650" as="geometry" />
        </mxCell>
        <mxCell id="9IuPYIYa4n8VkR3qBBK9-2" value="User" style="shape=umlActor;verticalLabelPosition=bottom;verticalAlign=top;html=1;outlineConnect=0;" vertex="1" parent="1">
          <mxGeometry x="190" y="280" width="30" height="60" as="geometry" />
        </mxCell>
        <mxCell id="9IuPYIYa4n8VkR3qBBK9-4" value="Login" style="ellipse;whiteSpace=wrap;html=1;" vertex="1" parent="1">
          <mxGeometry x="346.25" y="100" width="123.75" height="50" as="geometry" />
        </mxCell>
        <mxCell id="9IuPYIYa4n8VkR3qBBK9-5" value="Signup" style="ellipse;whiteSpace=wrap;html=1;" vertex="1" parent="1">
          <mxGeometry x="342.5" y="170" width="127.5" height="50" as="geometry" />
        </mxCell>
        <mxCell id="9IuPYIYa4n8VkR3qBBK9-6" value="View Summarized emails" style="ellipse;whiteSpace=wrap;html=1;" vertex="1" parent="1">
          <mxGeometry x="342.5" y="250" width="130" height="50" as="geometry" />
        </mxCell>
        <mxCell id="9IuPYIYa4n8VkR3qBBK9-7" value="View AI Reply Suggestions" style="ellipse;whiteSpace=wrap;html=1;" vertex="1" parent="1">
          <mxGeometry x="343.75" y="330" width="125" height="50" as="geometry" />
        </mxCell>
        <mxCell id="9IuPYIYa4n8VkR3qBBK9-8" value="Send AI Suggested Replies" style="ellipse;whiteSpace=wrap;html=1;" vertex="1" parent="1">
          <mxGeometry x="530" y="330" width="140" height="50" as="geometry" />
        </mxCell>
        <mxCell id="9IuPYIYa4n8VkR3qBBK9-11" value="Fetch Emails" style="ellipse;whiteSpace=wrap;html=1;" vertex="1" parent="1">
          <mxGeometry x="500" y="430" width="125" height="50" as="geometry" />
        </mxCell>
        <mxCell id="9IuPYIYa4n8VkR3qBBK9-12" value="Generate AI Reply" style="ellipse;whiteSpace=wrap;html=1;" vertex="1" parent="1">
          <mxGeometry x="500" y="520" width="125" height="50" as="geometry" />
        </mxCell>
        <mxCell id="9IuPYIYa4n8VkR3qBBK9-13" value="Summarize emails" style="ellipse;whiteSpace=wrap;html=1;" vertex="1" parent="1">
          <mxGeometry x="500" y="610" width="125" height="50" as="geometry" />
        </mxCell>
        <mxCell id="9IuPYIYa4n8VkR3qBBK9-14" value="Categorize emails" style="ellipse;whiteSpace=wrap;html=1;" vertex="1" parent="1">
          <mxGeometry x="320" y="430" width="125" height="50" as="geometry" />
        </mxCell>
        <mxCell id="9IuPYIYa4n8VkR3qBBK9-15" value="System" style="shape=umlActor;verticalLabelPosition=bottom;verticalAlign=top;html=1;outlineConnect=0;" vertex="1" parent="1">
          <mxGeometry x="740" y="510" width="30" height="60" as="geometry" />
        </mxCell>
        <mxCell id="9IuPYIYa4n8VkR3qBBK9-16" value="extends" style="html=1;verticalAlign=bottom;endArrow=open;dashed=1;endSize=8;curved=0;rounded=0;exitX=0;exitY=0.5;exitDx=0;exitDy=0;" edge="1" parent="1" source="9IuPYIYa4n8VkR3qBBK9-8" target="9IuPYIYa4n8VkR3qBBK9-7">
          <mxGeometry relative="1" as="geometry">
            <mxPoint x="540" y="350" as="sourcePoint" />
            <mxPoint x="460" y="350" as="targetPoint" />
          </mxGeometry>
        </mxCell>
        <mxCell id="9IuPYIYa4n8VkR3qBBK9-17" value="includes" style="html=1;verticalAlign=bottom;endArrow=open;dashed=1;endSize=8;curved=0;rounded=0;exitX=0;exitY=0.5;exitDx=0;exitDy=0;entryX=1;entryY=0.5;entryDx=0;entryDy=0;" edge="1" parent="1" source="9IuPYIYa4n8VkR3qBBK9-11" target="9IuPYIYa4n8VkR3qBBK9-14">
          <mxGeometry relative="1" as="geometry">
            <mxPoint x="521" y="420" as="sourcePoint" />
            <mxPoint x="460" y="420" as="targetPoint" />
          </mxGeometry>
        </mxCell>
        <mxCell id="9IuPYIYa4n8VkR3qBBK9-22" value="" style="endArrow=classic;html=1;rounded=0;entryX=0.967;entryY=0.625;entryDx=0;entryDy=0;entryPerimeter=0;" edge="1" parent="1" source="9IuPYIYa4n8VkR3qBBK9-15" target="9IuPYIYa4n8VkR3qBBK9-11">
          <mxGeometry width="50" height="50" relative="1" as="geometry">
            <mxPoint x="520" y="490" as="sourcePoint" />
            <mxPoint x="570" y="440" as="targetPoint" />
          </mxGeometry>
        </mxCell>
        <mxCell id="9IuPYIYa4n8VkR3qBBK9-23" value="" style="endArrow=classic;html=1;rounded=0;entryX=0.977;entryY=0.4;entryDx=0;entryDy=0;entryPerimeter=0;" edge="1" parent="1" source="9IuPYIYa4n8VkR3qBBK9-15" target="9IuPYIYa4n8VkR3qBBK9-12">
          <mxGeometry width="50" height="50" relative="1" as="geometry">
            <mxPoint x="744" y="610" as="sourcePoint" />
            <mxPoint x="625" y="540" as="targetPoint" />
          </mxGeometry>
        </mxCell>
        <mxCell id="9IuPYIYa4n8VkR3qBBK9-24" value="" style="endArrow=classic;html=1;rounded=0;entryX=0.977;entryY=0.4;entryDx=0;entryDy=0;entryPerimeter=0;" edge="1" parent="1" source="9IuPYIYa4n8VkR3qBBK9-15">
          <mxGeometry width="50" height="50" relative="1" as="geometry">
            <mxPoint x="743" y="630" as="sourcePoint" />
            <mxPoint x="625" y="630" as="targetPoint" />
          </mxGeometry>
        </mxCell>
        <mxCell id="9IuPYIYa4n8VkR3qBBK9-25" value="" style="endArrow=classic;html=1;rounded=0;entryX=0;entryY=0.5;entryDx=0;entryDy=0;exitX=1;exitY=0.3333333333333333;exitDx=0;exitDy=0;exitPerimeter=0;" edge="1" parent="1" source="9IuPYIYa4n8VkR3qBBK9-2" target="9IuPYIYa4n8VkR3qBBK9-4">
          <mxGeometry width="50" height="50" relative="1" as="geometry">
            <mxPoint x="289" y="220" as="sourcePoint" />
            <mxPoint x="170" y="150" as="targetPoint" />
          </mxGeometry>
        </mxCell>
        <mxCell id="9IuPYIYa4n8VkR3qBBK9-26" value="" style="endArrow=classic;html=1;rounded=0;entryX=0;entryY=0.5;entryDx=0;entryDy=0;" edge="1" parent="1" target="9IuPYIYa4n8VkR3qBBK9-5">
          <mxGeometry width="50" height="50" relative="1" as="geometry">
            <mxPoint x="220" y="300" as="sourcePoint" />
            <mxPoint x="356" y="135" as="targetPoint" />
          </mxGeometry>
        </mxCell>
        <mxCell id="9IuPYIYa4n8VkR3qBBK9-27" value="" style="endArrow=classic;html=1;rounded=0;entryX=0;entryY=0.5;entryDx=0;entryDy=0;" edge="1" parent="1" target="9IuPYIYa4n8VkR3qBBK9-6">
          <mxGeometry width="50" height="50" relative="1" as="geometry">
            <mxPoint x="220" y="300" as="sourcePoint" />
            <mxPoint x="366" y="145" as="targetPoint" />
          </mxGeometry>
        </mxCell>
        <mxCell id="9IuPYIYa4n8VkR3qBBK9-28" value="" style="endArrow=classic;html=1;rounded=0;entryX=0.025;entryY=0.371;entryDx=0;entryDy=0;entryPerimeter=0;" edge="1" parent="1" target="9IuPYIYa4n8VkR3qBBK9-7">
          <mxGeometry width="50" height="50" relative="1" as="geometry">
            <mxPoint x="220" y="300" as="sourcePoint" />
            <mxPoint x="353" y="285" as="targetPoint" />
          </mxGeometry>
        </mxCell>
        <mxCell id="9IuPYIYa4n8VkR3qBBK9-30" value="&lt;font style=&quot;font-size: 15px;&quot;&gt;&lt;b&gt;Smart Email Web Appllication&lt;/b&gt;&lt;/font&gt;" style="text;html=1;align=center;verticalAlign=middle;whiteSpace=wrap;rounded=0;" vertex="1" parent="1">
          <mxGeometry x="377.5" y="60" width="235" height="30" as="geometry" />
        </mxCell>
      </root>
    </mxGraphModel>
  </diagram>
</mxfile>
